<svg width="17" height="14" viewBox="0 0 17 14" fill="none" xmlns="http://www.w3.org/2000/svg">
<path d="M14.8693 5.71987H3.43138L7.19447 1.95679C7.30167 1.85046 7.38676 1.72396 7.44483 1.58458C7.5029 1.44519 7.5328 1.29569 7.5328 1.1447C7.5328 0.993705 7.5029 0.844205 7.44483 0.704823C7.38676 0.565441 7.30167 0.438937 7.19447 0.332606C6.98016 0.119574 6.69027 0 6.38809 0C6.08592 0 5.79602 0.119574 5.58172 0.332606L0.674839 5.25092C0.245244 5.67795 0.00255385 6.25794 0 6.86367C0.00556637 7.46542 0.248025 8.04075 0.674839 8.46498L5.58172 13.3833C5.68836 13.4892 5.81482 13.573 5.95387 13.6301C6.09293 13.6871 6.24185 13.7162 6.39214 13.7156C6.54242 13.7151 6.69114 13.685 6.82978 13.627C6.96843 13.569 7.09429 13.4842 7.20019 13.3776C7.30608 13.2709 7.38993 13.1445 7.44695 13.0054C7.50398 12.8664 7.53305 12.7174 7.53252 12.5671C7.53199 12.4169 7.50186 12.2681 7.44386 12.1295C7.38586 11.9909 7.30111 11.865 7.19447 11.7591L3.43138 8.00746H14.8693C15.1727 8.00746 15.4636 7.88695 15.6781 7.67245C15.8926 7.45795 16.0131 7.16702 16.0131 6.86367C16.0131 6.56031 15.8926 6.26938 15.6781 6.05488C15.4636 5.84038 15.1727 5.71987 14.8693 5.71987Z" fill="black"/>
</svg>
