<svg width="17" height="9" viewBox="0 0 17 9" fill="none" xmlns="http://www.w3.org/2000/svg">
<path d="M15.6823 0.338332C15.576 0.231126 15.4495 0.146034 15.3101 0.0879653C15.1707 0.0298964 15.0212 0 14.8702 0C14.7192 0 14.5697 0.0298964 14.4304 0.0879653C14.291 0.146034 14.1645 0.231126 14.0581 0.338332L8.81956 5.5769C8.71323 5.68411 8.58673 5.7692 8.44734 5.82727C8.30796 5.88533 8.15846 5.91523 8.00747 5.91523C7.85647 5.91523 7.70697 5.88533 7.56759 5.82727C7.42821 5.7692 7.3017 5.68411 7.19537 5.5769L1.95679 0.338332C1.85046 0.231126 1.72396 0.146034 1.58458 0.0879653C1.4452 0.0298964 1.2957 0 1.1447 0C0.993706 0 0.844206 0.0298964 0.704824 0.0879653C0.565442 0.146034 0.438937 0.231126 0.332607 0.338332C0.119574 0.552635 0 0.842532 0 1.14471C0 1.44688 0.119574 1.73677 0.332607 1.95108L5.58262 7.20108C6.22601 7.84367 7.09815 8.2046 8.00747 8.2046C8.91679 8.2046 9.78893 7.84367 10.4323 7.20108L15.6823 1.95108C15.8954 1.73677 16.0149 1.44688 16.0149 1.14471C16.0149 0.842532 15.8954 0.552635 15.6823 0.338332Z" fill="#929292"/>
</svg>
