<svg width="23" height="23" viewBox="0 0 23 23" fill="none" xmlns="http://www.w3.org/2000/svg">
<g clip-path="url(#clip0_302_6414)">
<path d="M20.0164 5.71897H17.1569C17.1569 4.20221 16.5544 2.74756 15.4819 1.67505C14.4094 0.602533 12.9547 0 11.4379 0C9.92118 0 8.46654 0.602533 7.39402 1.67505C6.32151 2.74756 5.71897 4.20221 5.71897 5.71897H2.85949C2.1011 5.71897 1.37378 6.02024 0.837524 6.5565C0.301266 7.09275 0 7.82008 0 8.57846L0 18.1101C0.00151349 19.3736 0.50411 20.5849 1.39755 21.4783C2.29098 22.3718 3.5023 22.8744 4.76581 22.8759H18.1101C19.3736 22.8744 20.5849 22.3718 21.4783 21.4783C22.3718 20.5849 22.8744 19.3736 22.8759 18.1101V8.57846C22.8759 7.82008 22.5746 7.09275 22.0384 6.5565C21.5021 6.02024 20.7748 5.71897 20.0164 5.71897ZM11.4379 1.90632C12.4491 1.90632 13.4189 2.30801 14.1339 3.02302C14.8489 3.73803 15.2506 4.7078 15.2506 5.71897H7.6253C7.6253 4.7078 8.02698 3.73803 8.74199 3.02302C9.457 2.30801 10.4268 1.90632 11.4379 1.90632ZM20.9696 18.1101C20.9696 18.8685 20.6683 19.5958 20.132 20.132C19.5958 20.6683 18.8685 20.9696 18.1101 20.9696H4.76581C4.00743 20.9696 3.28011 20.6683 2.74385 20.132C2.20759 19.5958 1.90632 18.8685 1.90632 18.1101V8.57846C1.90632 8.32566 2.00675 8.08322 2.1855 7.90447C2.36425 7.72572 2.60669 7.6253 2.85949 7.6253H5.71897V9.53162C5.71897 9.78441 5.81939 10.0269 5.99815 10.2056C6.1769 10.3844 6.41934 10.4848 6.67213 10.4848C6.92493 10.4848 7.16737 10.3844 7.34612 10.2056C7.52487 10.0269 7.6253 9.78441 7.6253 9.53162V7.6253H15.2506V9.53162C15.2506 9.78441 15.351 10.0269 15.5298 10.2056C15.7085 10.3844 15.951 10.4848 16.2038 10.4848C16.4565 10.4848 16.699 10.3844 16.8777 10.2056C17.0565 10.0269 17.1569 9.78441 17.1569 9.53162V7.6253H20.0164C20.2692 7.6253 20.5116 7.72572 20.6904 7.90447C20.8691 8.08322 20.9696 8.32566 20.9696 8.57846V18.1101Z" fill="black"/>
</g>
<defs>
<clipPath id="clip0_302_6414">
<rect width="22.8759" height="22.8759" fill="white"/>
</clipPath>
</defs>
</svg>
